<?xml version="1.0" standalone="no"?>
<!DOCTYPE svg PUBLIC "-//W3C//DTD SVG 20010904//EN"
 "http://www.w3.org/TR/2001/REC-SVG-20010904/DTD/svg10.dtd">
<svg version="1.0" xmlns="http://www.w3.org/2000/svg"
 width="1152.000000pt" height="1152.000000pt" viewBox="0 0 1152.000000 1152.000000"
 preserveAspectRatio="xMidYMid meet">
<metadata>
Created by potrace 1.11, written by Peter Selinger 2001-2013
</metadata>
<g transform="translate(0.000000,1152.000000) scale(0.100000,-0.100000)"
fill="#000000" stroke="none">
<path d="M5578 10876 c-1 -2 -34 -6 -71 -10 -66 -6 -116 -13 -167 -22 -14 -2
-41 -7 -60 -10 -175 -28 -427 -113 -630 -213 -545 -269 -973 -721 -1211 -1278
-59 -139 -133 -379 -153 -498 -2 -16 -7 -43 -10 -60 -37 -199 -42 -525 -11
-690 57 -298 221 -713 433 -1100 22 -38 52 -95 69 -125 315 -574 969 -1493
1605 -2255 9 -11 44 -54 78 -95 131 -158 175 -185 310 -185 86 0 100 3 147 29
58 32 85 60 225 231 9 11 43 52 75 91 102 123 120 146 253 314 72 91 136 172
143 180 180 221 722 984 864 1215 7 11 40 65 75 120 34 55 71 116 81 135 11
19 25 42 32 50 7 8 14 20 16 25 2 6 30 55 61 110 103 182 117 209 197 370 138
280 236 529 287 729 35 135 34 132 54 266 8 58 5 370 -5 445 -5 41 -16 112
-30 190 -23 132 -115 438 -138 461 -4 4 -7 14 -7 21 0 24 -111 244 -179 353
-155 252 -350 474 -563 645 -46 36 -91 72 -100 80 -9 7 -27 19 -40 26 -13 6
-25 15 -28 19 -7 11 -151 100 -230 142 -231 124 -524 224 -770 262 -52 8 -111
18 -130 21 -36 6 -465 16 -472 11z m364 -1695 c160 -38 291 -112 413 -235 101
-102 158 -193 200 -319 35 -105 40 -142 39 -282 -1 -218 -71 -392 -226 -563
-110 -121 -306 -227 -467 -250 -77 -12 -252 -7 -321 7 -249 54 -483 244 -586
478 -79 179 -94 409 -37 588 80 255 278 461 526 546 45 16 100 31 122 35 22 3
42 7 44 9 8 8 250 -3 293 -14z"/>
<path d="M11112 7666 c-24 -8 -57 -21 -75 -29 -18 -8 -61 -29 -97 -45 -36 -16
-92 -42 -125 -57 -33 -15 -103 -46 -155 -70 -52 -24 -124 -56 -160 -73 -36
-16 -87 -40 -115 -52 -27 -12 -78 -36 -112 -51 -35 -16 -91 -42 -125 -58 -35
-15 -85 -38 -113 -51 -61 -27 -345 -156 -440 -200 -38 -18 -169 -77 -290 -132
-121 -55 -245 -111 -275 -125 -30 -14 -122 -56 -205 -93 -82 -37 -181 -82
-220 -100 -38 -18 -115 -52 -170 -77 -55 -25 -103 -48 -108 -52 -4 -4 -6
-1301 -5 -2883 l3 -2876 75 29 c41 16 84 34 95 39 11 5 146 59 300 120 154 61
289 115 300 120 11 5 169 68 350 140 182 72 339 135 350 140 11 5 200 80 420
168 220 87 409 163 420 167 11 5 22 9 25 10 3 1 16 6 30 12 14 6 129 52 255
103 127 51 253 107 280 125 118 75 218 207 266 350 l24 70 0 2605 0 2605 -23
47 c-70 140 -242 219 -380 174z"/>
<path d="M1554 7022 c-666 -268 -1233 -501 -1261 -518 -112 -71 -209 -195
-261 -336 l-27 -73 -3 -2597 c-1 -1931 1 -2604 9 -2625 30 -72 40 -90 71 -125
47 -51 106 -85 175 -99 100 -21 144 -7 538 176 39 18 162 74 275 125 113 51
241 109 285 130 44 21 100 47 125 58 110 48 149 66 205 92 165 76 217 100 220
100 1 0 45 20 96 44 52 24 139 64 194 88 94 43 144 65 267 122 45 20 280 127
468 213 30 14 80 36 110 50 30 14 79 36 108 49 l52 24 0 2332 0 2333 -26 45
c-100 171 -288 578 -365 787 -19 51 -36 93 -39 92 -3 0 -550 -220 -1216 -487z"/>
<path d="M3842 3741 l3 -1822 1915 -638 1915 -639 3 1223 c1 673 1 1778 0
2456 l-3 1233 -84 -119 c-87 -123 -312 -426 -442 -596 -147 -191 -173 -224
-179 -229 -3 -3 -50 -61 -105 -130 -55 -69 -110 -136 -121 -150 -12 -14 -78
-92 -146 -175 -145 -174 -188 -218 -272 -281 -100 -75 -269 -151 -376 -168
-19 -3 -46 -8 -60 -11 -25 -5 -207 -6 -245 -1 -16 2 -95 16 -115 21 -146 32
-308 122 -428 237 -104 100 -628 744 -872 1073 -25 33 -47 62 -50 65 -3 3 -17
21 -30 40 -13 19 -27 37 -30 40 -3 3 -33 43 -65 89 -33 46 -77 107 -97 135
-20 28 -55 78 -77 110 l-41 59 2 -1822z"/>
</g>
</svg>
